<svg width="450" height="220" viewBox="0 0 450 220" fill="none" xmlns="http://www.w3.org/2000/svg">
  <defs>
    <linearGradient id="cardGrad" x1="0" y1="0" x2="0" y2="1">
      <stop offset="0" stop-color="#1E293B"/>
      <stop offset="1" stop-color="#0F172A"/>
    </linearGradient>
    <filter id="shadow">
      <feDropShadow dx="0" dy="2" stdDeviation="2" flood-opacity="0.5"/>
    </filter>
  </defs>

  <style>
    .chip { fill: #334155; }
    .text-title { font-family: 'Segoe UI', sans-serif; font-weight: 700; fill: #F1F5F9; }
    .text-body { font-family: 'Segoe UI', sans-serif; font-weight: 400; fill: #94A3B8; }
    .text-chip { font-family: 'Segoe UI', sans-serif; font-weight: 600; fill: #38B2AC; font-size: 11px; }
  </style>

  <rect x="0.5" y="0.5" width="449" height="219" rx="11.5" fill="url(#cardGrad)" stroke="#334155"/>
  
  <path d="M0 12C0 5.37258 5.37258 0 12 0H438C444.627 0 450 5.37258 450 12V14H0V12Z" fill="#38B2AC"/>

  <g transform="translate(360, 24)">
    <rect width="70" height="20" rx="4" fill="#10B981" fill-opacity="0.2"/>
    <text x="35" y="14" text-anchor="middle" font-family="'Segoe UI'" font-size="10" font-weight="bold" fill="#10B981">LIVE DEMO</text>
  </g>

  <circle cx="40" cy="55" r="16" fill="#38B2AC" fill-opacity="0.2"/>
  <text x="32" y="61" font-size="18">🤖</text>
  <text x="70" y="62" font-size="22" class="text-title" filter="url(#shadow)">Vertex</text>
  
  <text x="40" y="95" class="text-body" font-size="14">AI-Powered Document Assistant.</text>
  <text x="40" y="118" class="text-body" font-size="13">RAG system enabling context-aware chat with PDFs</text>
  <text x="40" y="136" class="text-body" font-size="13">using Gemini 2.5 Flash &amp; Qdrant Vector DB.</text>

  <g transform="translate(40, 170)">
    <rect width="60" height="24" rx="12" class="chip"/>
    <text x="30" y="16" text-anchor="middle" class="text-chip">Next.js</text>
    
    <rect x="70" width="80" height="24" rx="12" class="chip"/>
    <text x="110" y="16" text-anchor="middle" class="text-chip">LangChain</text>
    
    <rect x="160" width="70" height="24" rx="12" class="chip"/>
    <text x="195" y="16" text-anchor="middle" class="text-chip">Gemini</text>
  </g>
</svg>