<svg width="450" height="220" viewBox="0 0 450 220" fill="none" xmlns="http://www.w3.org/2000/svg">
  <defs>
    <linearGradient id="cardGradStreamly" x1="0" y1="0" x2="0" y2="1">
      <stop offset="0" stop-color="#1E293B"/>
      <stop offset="1" stop-color="#0F172A"/>
    </linearGradient>
    <filter id="shadowStreamly">
      <feDropShadow dx="0" dy="2" stdDeviation="2" flood-opacity="0.5"/>
    </filter>
  </defs>

  <rect x="0.5" y="0.5" width="449" height="219" rx="11.5" fill="url(#cardGradStreamly)" stroke="#334155"/>
  
  <path d="M0 12C0 5.37258 5.37258 0 12 0H438C444.627 0 450 5.37258 450 12V14H0V12Z" fill="#F43F5E"/>

  <g transform="translate(360, 24)">
    <rect width="70" height="20" rx="4" fill="#F43F5E" fill-opacity="0.2"/>
    <text x="35" y="14" text-anchor="middle" font-family="'Segoe UI', sans-serif" font-size="10" font-weight="bold" fill="#F43F5E">LIVE DEMO</text>
  </g>

  <circle cx="40" cy="55" r="16" fill="#F43F5E" fill-opacity="0.2"/>
  <text x="32" y="60" font-size="18">▶️</text>
  <text x="70" y="62" font-size="22" font-family="'Segoe UI', sans-serif" font-weight="700" fill="#F1F5F9" filter="url(#shadowStreamly)">Streamly</text>
  
  <text x="40" y="95" font-family="'Segoe UI', sans-serif" font-weight="400" fill="#94A3B8" font-size="14">Scalable Video Streaming Platform.</text>
  <text x="40" y="118" font-family="'Segoe UI', sans-serif" font-weight="400" fill="#94A3B8" font-size="13">YouTube-modeled architecture handling high</text>
  <text x="40" y="136" font-family="'Segoe UI', sans-serif" font-weight="400" fill="#94A3B8" font-size="13">concurrency with MongoDB aggregations.</text>

  <g transform="translate(40, 170)">
    <rect width="70" height="24" rx="12" fill="#334155"/>
    <text x="35" y="16" text-anchor="middle" font-family="'Segoe UI', sans-serif" font-weight="600" fill="#38B2AC" font-size="11">MERN</text>
    
    <rect x="80" width="60" height="24" rx="12" fill="#334155"/>
    <text x="110" y="16" text-anchor="middle" font-family="'Segoe UI', sans-serif" font-weight="600" fill="#38B2AC" font-size="11">Redux</text>
    
    <rect x="150" width="80" height="24" rx="12" fill="#334155"/>
    <text x="190" y="16" text-anchor="middle" font-family="'Segoe UI', sans-serif" font-weight="600" fill="#38B2AC" font-size="11">Cloudinary</text>
  </g>
</svg>